<svg width="36" height="35" viewBox="0 0 36 35" fill="none" xmlns="http://www.w3.org/2000/svg">
<path d="M35.4369 5.36881C34.954 4.71137 34.2362 4.33438 33.4679 4.33438H6.02834L5.7833 2.40214C5.60977 1.03389 4.53203 0.00201416 3.27633 0.00201416H1.12499C0.503715 0.00201416 0 0.556247 0 1.23983C0 1.92342 0.503715 2.47765 1.12499 2.47765H3.27633C3.41583 2.47765 3.53564 2.5923 3.55483 2.74432L6.59154 26.6906C6.76507 28.0589 7.84281 29.0907 9.09851 29.0907H10.3184C10.1935 29.4782 10.1249 29.8946 10.1249 30.3286C10.1249 32.3761 11.6389 34.042 13.4998 34.042C15.3608 34.042 16.8748 32.3761 16.8748 30.3286C16.8748 29.8946 16.8062 29.4782 16.6813 29.0907H22.6933C22.5684 29.4782 22.4998 29.8946 22.4998 30.3286C22.4998 32.3761 24.0138 34.042 25.8747 34.042C27.7357 34.042 29.2497 32.3761 29.2497 30.3286C29.2497 29.8946 29.1811 29.4782 29.0562 29.0907H31.4998C32.1211 29.0907 32.6248 28.5365 32.6248 27.8529C32.6248 27.1693 32.1211 26.6151 31.4998 26.6151H9.09858C8.95908 26.6151 8.83927 26.5005 8.82008 26.3484L8.53996 24.1395H30.6954C31.8807 24.1395 32.9217 23.2138 33.1707 21.9379L35.9431 7.70318C36.1042 6.87686 35.9197 6.02601 35.4369 5.36881V5.36881ZM14.6249 30.3286C14.6249 31.0111 14.1202 31.5664 13.4999 31.5664C12.8796 31.5664 12.3749 31.0111 12.3749 30.3286C12.3749 29.6461 12.8796 29.0907 13.4999 29.0907C14.1202 29.0907 14.6249 29.646 14.6249 30.3286ZM26.9998 30.3286C26.9998 31.0111 26.4951 31.5664 25.8748 31.5664C25.2545 31.5664 24.7498 31.0111 24.7498 30.3286C24.7498 29.6461 25.2545 29.0907 25.8748 29.0907C26.4951 29.0907 26.9998 29.646 26.9998 30.3286ZM33.7431 7.18422L30.9708 21.4186C30.9431 21.5606 30.8272 21.6638 30.6954 21.6638H8.22594L6.34228 6.80994H33.4678C33.5791 6.80994 33.6484 6.87245 33.687 6.9249C33.7254 6.97727 33.7664 7.06477 33.7431 7.18422V7.18422Z" fill="white"/>
</svg>
